# xmcd
#
# Track frame offsets:
#	151
#	13380
#	38082
#	51235
#	64464
#	77319
#	97528
#	108433
#	121290
#	140671
#
# Disc length: 2037 seconds
#
# Revision: 1
# Processed by: cddbd v1.5.2PL0 Copyright (c) Steve Scherf et al.
# Submitted via: audiograbber 1.83.01
#
DISCID=7f07f30a
DTITLE=Shani Hadden - Threatenin' Dark Clouds
DYEAR=2000
DGENRE=Country
TTITLE0=Lovin' Lyin' Loneliness and Leavin'
TTITLE1=You Can Count on Me
TTITLE2=Don't Start That Again
TTITLE3=I'll Remember you
TTITLE4=That's Enough of That
TTITLE5=Threatenin' Dark Clouds
TTITLE6=Dam This River of Tears
TTITLE7=Your Lyin's Den
TTITLE8=Take Your Time
TTITLE9=Bringin' Home the Bacon
EXTD=
EXTT0=
EXTT1=
EXTT2=
EXTT3=
EXTT4=
EXTT5=
EXTT6=
EXTT7=
EXTT8=
EXTT9=
PLAYORDER=
